<?xml version="1.0" encoding="UTF-8" standalone="no"?>
<!DOCTYPE svg PUBLIC "-//W3C//DTD SVG 1.1//EN" "http://www.w3.org/Graphics/SVG/1.1/DTD/svg11.dtd">
<svg width="100%" height="100%" viewBox="0 0 1080 1080" version="1.1" xmlns="http://www.w3.org/2000/svg" xmlns:xlink="http://www.w3.org/1999/xlink" xml:space="preserve" xmlns:serif="http://www.serif.com/" style="fill-rule:evenodd;clip-rule:evenodd;stroke-linejoin:round;stroke-miterlimit:2;">
    <g transform="matrix(0.905299,0,0,1.05152,-18.117,-46.2669)">
        <path d="M616.5,44L1126,553.5L616.5,1063L107,553.5L616.5,44Z" style="fill:rgb(0,1,67);"/>
    </g>
    <g transform="matrix(1,0,0,1.37327,285.622,61.797)">
        <path d="M254.378,-45L305,345.128L254.378,735.256L203.756,345.128L254.378,-45Z" style="fill:rgb(0,0,32);"/>
    </g>
    <g transform="matrix(1,0,0,1.37327,281.372,61.797)">
        <path d="M254.378,-45L305,345.128L254.378,735.256L203.756,345.128L254.378,-45Z" style="fill:rgb(0,0,32);"/>
    </g>
    <g transform="matrix(7.49916,0,0,1.37327,-1367.62,70.297)">
        <path d="M254.378,-45L305,345.128L254.378,735.256L203.756,345.128L254.378,-45Z" style="fill:rgb(0,2,179);"/>
    </g>
    <g transform="matrix(7.49916,0,0,1.37327,-1367.62,70.297)">
        <path d="M254.378,-45L305,345.128L254.378,735.256L203.756,345.128L254.378,-45Z" style="fill:rgb(0,1,88);"/>
    </g>
    <g transform="matrix(4.99036,0,0,1.37327,-729.439,61.797)">
        <path d="M254.378,-45L305,345.128L254.378,735.256L203.756,345.128L254.378,-45Z" style="fill:rgb(0,3,255);"/>
    </g>
    <g transform="matrix(4.99036,0,0,1.37327,-729.439,61.797)">
        <path d="M254.378,-45L305,345.128L254.378,735.256L203.756,345.128L254.378,-45Z" style="fill:rgb(0,2,143);"/>
    </g>
    <g transform="matrix(3.32201,0,0,1.37327,-305.045,61.797)">
        <path d="M254.378,-45L305,345.128L254.378,735.256L203.756,345.128L254.378,-45Z" style="fill:rgb(82,84,255);"/>
    </g>
    <g transform="matrix(3.32201,0,0,1.37327,-305.045,61.797)">
        <path d="M254.378,-45L305,345.128L254.378,735.256L203.756,345.128L254.378,-45Z" style="fill:rgb(0,3,204);"/>
    </g>
    <g transform="matrix(1.66894,0,0,1.37327,115.459,61.797)">
        <path d="M254.378,-45L305,345.128L254.378,735.256L203.756,345.128L254.378,-45Z" style="fill:rgb(153,155,255);"/>
    </g>
    <g transform="matrix(1.66894,0,0,1.37327,115.459,61.797)">
        <path d="M254.378,-45L305,345.128L254.378,735.256L203.756,345.128L254.378,-45Z" style="fill:rgb(0,3,237);"/>
    </g>
    <g transform="matrix(0.444596,0,0,1.37327,426.905,61.797)">
        <path d="M254.378,-45L305,345.128L254.378,735.256L203.756,345.128L254.378,-45Z" style="fill:rgb(196,197,255);"/>
    </g>
    <g transform="matrix(0.444596,0,0,1.37327,426.905,61.797)">
        <path d="M254.378,-45L305,345.128L254.378,735.256L203.756,345.128L254.378,-45Z" style="fill:rgb(0,3,255);"/>
    </g>
</svg>
